<?xml version="1.0" standalone="no"?>
<!DOCTYPE svg PUBLIC "-//W3C//DTD SVG 20010904//EN"
 "http://www.w3.org/TR/2001/REC-SVG-20010904/DTD/svg10.dtd">
<svg version="1.0" xmlns="http://www.w3.org/2000/svg"
 width="1280.000000pt" height="1280.000000pt" viewBox="0 0 1280.000000 1280.000000"
 preserveAspectRatio="xMidYMid meet">

<g transform="translate(0.000000,1280.000000) scale(0.100000,-0.100000)"
fill="#000000" stroke="none">
<path d="M2950 11763 c-41 -8 -60 -33 -111 -140 -91 -194 -161 -333 -169 -333
-4 0 -5 -10 -3 -23 3 -14 -3 -29 -16 -41 -12 -11 -21 -26 -21 -35 0 -9 -6 -25
-13 -36 -7 -11 -19 -40 -26 -65 -7 -25 -21 -61 -30 -80 -71 -143 -121 -249
-127 -270 -3 -14 -17 -46 -30 -72 -13 -26 -24 -56 -24 -68 0 -11 -4 -20 -8
-20 -8 0 -13 -8 -51 -89 -9 -19 -31 -58 -49 -85 -22 -35 -31 -58 -27 -74 4
-15 -2 -32 -14 -48 -11 -14 -27 -47 -36 -73 -9 -27 -24 -56 -35 -66 -11 -10
-27 -40 -36 -69 -9 -28 -25 -61 -35 -74 -9 -12 -23 -46 -29 -75 -7 -28 -20
-59 -29 -67 -9 -8 -25 -40 -36 -70 -10 -30 -27 -64 -37 -74 -10 -11 -16 -27
-13 -37 3 -9 -1 -22 -10 -29 -8 -7 -15 -19 -15 -27 0 -8 -11 -28 -25 -45 -14
-16 -25 -38 -25 -49 0 -10 -7 -19 -15 -19 -11 0 -14 -7 -10 -23 4 -16 0 -29
-14 -41 -12 -11 -21 -29 -21 -41 0 -13 -7 -28 -15 -35 -8 -7 -15 -23 -15 -36
0 -13 -9 -28 -20 -34 -12 -6 -20 -21 -20 -36 0 -27 -22 -75 -51 -112 -10 -13
-16 -29 -13 -37 3 -7 0 -23 -6 -35 -10 -19 -8 -26 20 -55 27 -28 31 -38 25
-65 -6 -29 -3 -36 39 -75 39 -36 46 -47 41 -68 -6 -21 1 -33 33 -65 46 -46 62
-72 62 -100 0 -11 17 -39 38 -62 41 -47 68 -49 88 -8 6 13 29 57 51 98 23 41
52 97 67 124 14 27 26 56 26 64 0 8 17 35 39 61 41 48 68 93 109 176 13 28 32
61 42 75 9 14 57 102 105 195 48 94 92 175 97 181 4 6 46 85 91 175 88 175 95
186 167 294 26 39 58 93 72 120 14 28 65 127 113 220 49 94 113 220 144 280
31 61 66 125 79 142 13 18 41 71 62 118 33 70 44 86 67 91 16 3 45 10 66 16
26 6 49 6 72 -2 23 -8 40 -8 53 -1 10 6 52 10 93 10 41 0 83 1 94 1 11 0 70 0
130 0 61 0 241 2 400 4 160 3 304 5 320 4 17 -1 46 -1 65 -1 19 1 168 4 330 8
162 3 304 6 315 6 11 0 31 0 45 -1 14 -1 160 1 325 5 252 5 425 6 530 5 11 0
90 2 175 5 85 3 278 7 428 8 296 2 292 2 292 58 0 25 -15 56 -130 279 -85 164
-87 167 -150 179 -30 6 -127 13 -215 16 -353 12 -432 16 -490 21 -33 2 -130 7
-215 9 -136 4 -341 14 -605 30 -200 12 -463 25 -600 30 -82 3 -222 10 -310 15
-87 5 -162 7 -165 5 -3 -2 -71 3 -150 11 -80 8 -224 17 -320 19 -96 3 -240 10
-320 16 -165 13 -423 19 -460 12z"/>
<path d="M7897 9563 c-2 -1 -289 -5 -638 -7 -349 -3 -734 -8 -855 -11 -120 -4
-313 -8 -429 -9 -225 -3 -271 -12 -259 -48 9 -30 -22 -32 -109 -9 -147 40
-348 51 -828 45 -239 -3 -573 -7 -744 -9 -170 -1 -313 -3 -317 -4 -3 0 -18
-22 -33 -47 -20 -33 -24 -49 -16 -57 14 -14 14 -50 0 -64 -8 -8 -7 -17 3 -32
10 -17 10 -25 1 -40 -10 -16 -10 -25 1 -45 8 -15 11 -48 9 -83 -10 -174 -10
-199 -1 -210 7 -9 7 -23 -1 -43 -8 -23 -7 -36 1 -50 9 -14 9 -25 0 -45 -9 -19
-9 -32 -2 -46 8 -13 7 -25 0 -40 -9 -15 -9 -28 0 -48 8 -21 8 -34 -1 -54 -7
-16 -8 -31 -3 -39 5 -7 8 -69 8 -138 -2 -73 2 -134 9 -147 7 -17 7 -30 -1 -48
-9 -19 -9 -32 -2 -46 8 -13 7 -25 -1 -40 -8 -16 -8 -27 2 -45 9 -18 10 -30 1
-49 -7 -16 -8 -33 -3 -48 5 -14 5 -30 -1 -40 -6 -12 -6 -29 2 -51 7 -22 7 -41
1 -59 -6 -15 -7 -28 -3 -31 5 -3 7 -83 5 -178 -3 -201 -3 -190 3 -248 2 -25 4
-55 4 -67 -1 -13 -1 -38 -1 -55 0 -18 0 -42 0 -53 -1 -19 -1 -49 1 -77 1 -31
1 -288 -1 -325 -2 -51 9 -302 14 -309 3 -5 1 -45 -3 -89 -5 -48 -4 -85 1 -92
6 -7 6 -40 0 -89 -6 -47 -6 -85 0 -95 5 -9 9 -34 9 -56 0 -21 0 -49 0 -63 0
-14 0 -59 0 -100 -4 -352 0 -380 54 -394 29 -7 993 2 1018 10 9 3 20 14 23 25
9 28 9 550 0 703 -4 68 -4 133 -1 144 9 29 36 32 257 37 230 5 416 20 508 40
36 9 85 20 108 25 24 5 56 16 72 25 17 8 35 15 41 15 21 0 196 73 215 90 11
10 43 29 70 43 134 67 155 78 155 87 0 5 21 24 48 41 91 63 282 267 372 399
34 49 66 90 70 90 7 0 15 -466 10 -570 -1 -14 -1 -32 -1 -40 2 -83 11 -671 11
-690 0 -14 -2 -47 -5 -75 -7 -70 -7 -74 3 -135 5 -30 8 -92 7 -137 -2 -55 2
-86 10 -93 18 -15 145 -16 959 -10 49 1 94 4 99 7 29 18 35 71 32 288 -2 121
-6 580 -9 1020 -3 440 -9 974 -12 1186 -5 356 -4 387 12 400 14 12 94 14 455
16 277 1 454 6 479 13 l40 11 -3 520 c-3 395 -6 522 -16 532 -9 9 -118 12
-457 13 -244 0 -446 -1 -447 -3z m-2579 -1204 c15 -6 50 -14 78 -19 62 -10
125 -52 150 -100 11 -19 27 -41 36 -48 62 -46 93 -148 77 -260 -14 -100 -33
-143 -100 -219 -73 -83 -151 -124 -269 -139 -30 -4 -64 -11 -74 -17 -32 -16
-378 -21 -398 -5 -16 12 -17 49 -20 401 -3 347 -1 390 13 400 21 16 468 21
507 6z"/>
<path d="M10232 9022 c-17 -17 -20 -28 -15 -59 4 -20 10 -42 15 -48 5 -5 19
-23 33 -39 13 -17 27 -47 30 -67 5 -27 16 -45 41 -64 32 -24 52 -58 84 -143 7
-18 23 -41 35 -50 12 -10 25 -34 29 -53 4 -22 17 -44 32 -55 27 -20 57 -71 67
-115 4 -14 18 -38 32 -55 14 -16 25 -40 25 -54 0 -15 17 -46 40 -74 22 -26 40
-54 40 -61 0 -6 19 -41 41 -76 23 -35 48 -81 56 -103 7 -22 27 -53 43 -69 16
-16 32 -44 36 -63 3 -19 24 -56 45 -82 24 -29 39 -57 39 -74 0 -15 6 -31 13
-35 29 -19 66 -75 72 -112 4 -22 17 -49 31 -62 14 -13 38 -51 54 -84 16 -33
38 -70 50 -83 12 -12 31 -44 43 -70 12 -26 32 -61 45 -79 12 -18 28 -47 34
-65 7 -18 31 -59 55 -92 24 -32 43 -67 43 -78 0 -11 16 -39 36 -63 19 -24 40
-60 45 -80 6 -20 26 -54 45 -74 38 -43 45 -92 19 -126 -24 -32 -64 -93 -85
-133 -26 -47 -34 -60 -95 -152 -28 -41 -59 -97 -70 -125 -10 -27 -30 -61 -44
-75 -41 -40 -140 -191 -181 -277 -11 -23 -24 -44 -29 -48 -6 -3 -21 -30 -35
-59 -14 -30 -38 -68 -53 -86 -14 -18 -34 -45 -42 -61 -9 -15 -46 -72 -82 -126
-97 -145 -165 -254 -182 -294 -8 -20 -46 -79 -84 -130 -67 -90 -132 -188 -146
-219 -4 -8 -16 -28 -26 -45 -11 -16 -28 -46 -38 -65 -60 -114 -80 -147 -95
-161 -23 -21 -55 -68 -98 -144 -18 -33 -48 -80 -65 -105 -18 -25 -45 -70 -60
-100 -31 -62 -91 -153 -145 -220 -20 -25 -45 -66 -57 -91 -12 -25 -53 -91 -92
-147 -39 -56 -71 -106 -71 -112 0 -5 -4 -10 -10 -10 -5 0 -9 -3 -8 -8 2 -10
-13 -65 -22 -77 -10 -13 6 -55 22 -56 7 -1 33 -3 58 -4 25 -2 70 -8 100 -14
30 -6 122 -15 205 -20 163 -10 165 -10 192 43 8 17 36 54 62 81 43 45 121 148
121 160 0 13 81 127 114 161 49 50 85 103 126 184 18 36 63 97 100 137 36 39
90 111 118 160 28 48 69 105 91 126 22 21 69 86 105 145 35 59 90 136 121 172
31 36 65 81 76 100 28 50 85 130 118 165 16 17 50 62 76 100 26 39 56 79 65
90 10 11 27 39 39 62 11 23 40 58 65 78 24 20 51 50 60 68 9 18 38 64 66 102
27 39 57 83 66 99 9 16 28 39 44 52 30 25 73 88 141 203 26 45 56 82 75 93 18
10 35 24 38 31 4 7 16 29 29 49 80 135 112 182 155 230 27 29 75 91 107 138
66 99 78 144 47 187 -10 15 -31 51 -45 79 -15 29 -43 69 -63 90 -20 22 -42 48
-49 59 -27 42 -123 192 -151 234 -16 24 -43 66 -59 93 -17 27 -47 65 -66 86
-19 20 -57 75 -84 122 -26 47 -76 126 -110 175 -34 50 -74 113 -88 140 -14 28
-36 61 -49 75 -13 14 -65 88 -116 165 -50 77 -101 151 -112 165 -11 14 -27 41
-37 60 -10 19 -26 44 -36 55 -10 11 -28 38 -39 60 -11 22 -32 54 -47 71 -14
18 -44 62 -66 99 -22 37 -44 72 -50 79 -35 39 -67 91 -89 139 -13 30 -38 68
-56 84 -18 15 -44 48 -58 73 -66 113 -134 211 -158 227 -21 13 -60 19 -168 24
-77 4 -200 11 -272 15 -125 7 -132 6 -152 -14z"/>
<path d="M4974 6320 c-34 -13 -37 -28 -15 -59 12 -16 21 -44 21 -63 0 -24 8
-42 24 -57 15 -14 27 -40 31 -65 4 -22 18 -55 31 -73 13 -17 24 -45 24 -60 0
-16 11 -44 25 -63 14 -19 25 -46 25 -60 0 -15 11 -39 25 -54 14 -15 25 -39 25
-54 0 -38 51 -129 83 -151 25 -16 61 -18 488 -15 312 1 464 5 472 13 15 15
-16 82 -73 156 -26 33 -71 101 -100 150 -30 50 -67 105 -83 124 -16 19 -36 49
-43 67 -7 18 -38 61 -67 96 -30 35 -61 77 -69 93 -9 17 -27 42 -42 58 l-25 27
-368 -1 c-202 0 -378 -4 -389 -9z"/>
<path d="M1607 5087 c-16 -18 -45 -50 -64 -72 -20 -22 -42 -55 -50 -72 -7 -18
-22 -39 -33 -45 -11 -7 -20 -20 -20 -28 0 -8 -18 -41 -40 -73 -22 -31 -40 -62
-40 -67 0 -5 -9 -15 -20 -22 -27 -17 -25 -40 5 -68 15 -14 25 -35 25 -51 0
-16 15 -47 35 -73 21 -27 35 -58 35 -74 0 -19 11 -39 35 -62 20 -20 40 -52 46
-75 6 -22 22 -55 36 -74 15 -18 30 -54 35 -80 6 -33 17 -53 39 -72 19 -15 30
-33 28 -45 -3 -21 56 -149 97 -210 15 -21 33 -56 40 -76 7 -21 25 -54 40 -73
15 -20 24 -38 21 -42 -7 -6 12 -46 48 -99 14 -20 25 -44 25 -53 0 -9 16 -40
35 -68 20 -29 35 -65 35 -81 0 -18 10 -38 30 -57 21 -20 30 -38 30 -60 0 -20
9 -40 24 -54 33 -31 56 -82 50 -109 -5 -16 3 -30 31 -55 32 -30 36 -38 30 -65
-5 -26 -2 -34 25 -54 38 -27 61 -68 54 -94 -3 -13 7 -30 30 -53 28 -27 36 -43
36 -70 0 -25 8 -44 30 -66 20 -21 32 -44 33 -67 2 -24 16 -51 39 -80 26 -32
35 -51 31 -68 -3 -19 6 -36 41 -72 39 -41 44 -52 40 -80 -5 -27 0 -39 26 -65
22 -23 30 -38 25 -52 -4 -14 7 -33 40 -71 34 -38 45 -59 45 -84 0 -24 9 -43
35 -69 29 -30 34 -40 26 -55 -8 -15 -3 -27 22 -58 17 -21 37 -43 44 -47 7 -4
13 -26 13 -47 0 -22 4 -40 9 -40 13 0 52 -66 55 -93 2 -12 17 -42 34 -66 18
-25 32 -56 32 -73 0 -19 13 -42 40 -72 25 -27 40 -53 40 -69 l0 -27 73 6 c39
3 123 7 186 9 63 3 129 9 146 15 17 6 53 9 80 8 28 -1 91 2 140 5 50 4 200 14
335 23 135 9 263 18 285 19 22 2 78 6 125 9 116 8 212 16 230 21 8 2 98 6 200
10 102 3 214 10 250 14 36 5 74 10 85 10 232 11 394 21 414 27 14 3 58 8 96 9
205 7 378 31 399 55 7 8 28 42 45 75 18 32 41 71 50 85 10 14 28 46 40 72 12
25 32 53 44 61 29 18 117 167 117 196 0 11 -6 21 -12 22 -41 2 -951 -3 -1203
-6 -251 -4 -381 -5 -530 -5 -11 0 -254 -2 -540 -4 -286 -2 -530 -2 -543 1 -21
5 -81 93 -131 191 -7 15 -22 36 -31 47 -10 11 -39 59 -65 107 -26 49 -50 88
-54 88 -4 0 -21 28 -37 63 -16 34 -41 80 -56 101 -16 21 -28 44 -28 49 0 6 -9
20 -19 31 -23 25 -108 168 -166 281 -48 91 -125 225 -158 271 -22 32 -49 75
-77 123 -62 107 -86 151 -101 182 -9 20 -31 55 -48 79 -17 24 -31 47 -31 52 0
4 -14 27 -31 50 -16 23 -39 61 -50 83 -28 58 -74 138 -133 235 -29 47 -72 119
-96 160 -24 41 -53 86 -65 100 -11 14 -31 48 -44 75 -49 106 -57 121 -82 150
-14 17 -34 50 -44 75 -11 25 -34 62 -51 83 -18 21 -45 64 -61 95 -82 159 -128
240 -153 272 -14 19 -35 50 -46 68 -23 41 -50 40 -87 -1z"/>
<path d="M6659 4726 c-2 -2 -31 -6 -64 -9 -89 -9 -186 -24 -221 -35 -91 -28
-181 -104 -224 -189 -18 -37 -37 -81 -41 -98 -4 -16 -15 -49 -23 -72 -18 -48
-16 -246 3 -281 6 -11 11 -34 11 -50 0 -16 9 -41 20 -55 11 -14 20 -29 20 -35
0 -5 9 -17 19 -26 11 -10 23 -31 26 -46 4 -19 28 -44 82 -84 42 -31 84 -56 94
-56 9 0 22 -6 28 -14 13 -16 124 -28 241 -26 70 1 100 7 175 36 77 30 100 44
161 103 91 87 131 165 147 283 15 111 12 212 -8 265 -9 24 -14 54 -11 67 4 18
-6 40 -45 92 -28 37 -63 77 -77 88 -15 12 -35 29 -45 39 -22 22 -131 72 -190
87 -23 6 -49 13 -58 16 -8 2 -17 2 -20 0z m49 -123 c39 -3 72 -9 72 -12 0 -4
22 -24 50 -45 27 -20 52 -47 56 -59 3 -12 21 -36 40 -54 19 -18 34 -38 35 -45
2 -37 8 -79 18 -137 7 -35 9 -77 6 -93 -4 -16 -2 -34 4 -41 7 -9 6 -21 -3 -39
-8 -14 -19 -43 -26 -65 -14 -42 -55 -118 -79 -146 -26 -30 -132 -84 -192 -97
-32 -7 -92 -11 -137 -8 -67 4 -88 9 -124 33 -100 66 -129 98 -174 191 -43 90
-44 93 -44 196 0 124 14 174 78 270 68 103 136 143 277 161 17 3 39 2 50 0 11
-2 53 -7 93 -10z"/>
<path d="M4180 4700 c-60 -8 -144 -35 -167 -53 -9 -7 -27 -24 -41 -39 -15 -16
-32 -28 -39 -28 -38 0 -134 -160 -147 -245 -9 -54 -9 -158 -2 -225 3 -30 8
-74 9 -96 2 -23 13 -54 25 -68 11 -15 18 -34 16 -41 -7 -18 25 -73 47 -80 9
-3 40 -28 68 -55 29 -28 88 -68 132 -90 79 -39 82 -40 188 -40 81 0 123 5 169
20 65 21 153 69 188 101 17 16 23 17 38 6 15 -11 16 -17 7 -35 -24 -45 23 -75
80 -52 42 18 52 41 34 83 -8 19 -11 37 -8 41 4 4 7 88 8 187 1 172 0 182 -19
194 -24 15 -150 26 -271 23 -44 -1 -97 -1 -117 0 -32 1 -41 -4 -67 -37 -17
-21 -31 -44 -31 -50 0 -22 39 -28 179 -30 79 -1 152 -6 162 -12 20 -10 26 -44
9 -54 -5 -3 -10 -21 -10 -39 0 -47 -19 -79 -81 -138 -80 -74 -138 -98 -243
-98 -120 0 -174 22 -250 102 -100 106 -150 247 -128 357 6 31 9 66 6 79 -8 28
69 186 100 208 122 85 121 85 241 95 87 7 105 6 142 -11 69 -31 206 -135 221
-169 16 -36 39 -45 92 -36 33 6 40 11 39 28 -2 63 -55 144 -136 209 -91 74
-102 79 -206 89 -105 10 -159 10 -237 -1z"/>
<path d="M8615 4705 c-5 -2 -21 -6 -35 -9 -44 -9 -51 -50 -45 -262 6 -199 9
-542 4 -559 -1 -5 1 -22 5 -37 5 -15 3 -35 -4 -48 -18 -34 16 -83 63 -91 23
-4 44 -1 55 7 17 11 18 28 14 201 -3 150 -1 191 9 200 9 6 91 14 204 17 300
11 379 45 446 191 29 64 31 75 24 140 -10 105 -36 149 -115 195 -46 27 -85 41
-137 49 -63 10 -462 15 -488 6z m478 -115 c77 -35 108 -69 118 -130 5 -35 5
-69 -2 -95 -11 -40 -53 -95 -73 -95 -6 0 -24 -7 -41 -16 -40 -20 -383 -30
-408 -11 -25 18 -28 318 -4 345 15 17 35 19 192 20 152 1 181 -2 218 -18z"/>
<path d="M5197 4691 c-122 -6 -130 -7 -149 -31 -17 -21 -19 -34 -14 -80 3 -30
6 -82 6 -115 -2 -171 -2 -204 2 -245 3 -25 9 -53 13 -63 4 -10 2 -23 -4 -31
-11 -13 -15 -76 -12 -184 1 -18 6 -42 12 -53 7 -15 7 -24 -1 -35 -9 -9 -10
-29 -4 -61 4 -27 9 -56 10 -65 3 -35 26 -50 67 -45 21 3 42 8 45 12 4 4 8 95
9 203 3 221 4 224 68 213 22 -4 57 -3 78 2 25 6 54 6 81 0 24 -5 51 -6 62 -2
10 3 53 4 94 1 79 -5 115 -22 124 -58 3 -11 17 -33 31 -50 17 -19 24 -36 20
-51 -5 -21 11 -213 21 -245 7 -22 38 -32 94 -29 63 3 73 15 55 71 -36 113 -45
156 -45 210 0 65 -23 128 -64 177 l-26 31 49 59 c50 60 91 147 91 192 0 14
-12 56 -27 94 -40 98 -85 134 -201 157 -48 10 -105 18 -127 18 -22 -1 -83 1
-135 4 -52 3 -153 2 -223 -1z m413 -119 c64 -9 79 -15 102 -42 16 -16 28 -37
28 -46 0 -8 6 -25 14 -37 23 -35 10 -99 -31 -147 -19 -22 -43 -40 -53 -40 -10
0 -22 -4 -25 -10 -3 -5 -22 -10 -41 -10 -20 0 -44 -5 -54 -10 -10 -6 -91 -10
-180 -11 -138 -1 -165 1 -179 15 -19 19 -29 151 -21 269 l5 72 80 5 c115 7
268 4 355 -8z"/>
<path d="M7368 4680 l-25 -19 4 -253 c6 -440 9 -519 19 -526 5 -4 26 -28 46
-53 37 -46 97 -91 189 -142 41 -23 58 -26 150 -27 194 -2 231 4 290 40 106 65
166 117 183 161 29 73 38 200 34 504 -3 271 -4 294 -22 314 -27 30 -81 28
-101 -2 -18 -29 -19 -39 -12 -337 2 -130 0 -277 -5 -329 -10 -93 -11 -95 -57
-143 -25 -27 -66 -60 -91 -74 -43 -24 -51 -25 -170 -21 -103 3 -132 7 -164 25
-79 43 -110 85 -136 184 -17 65 -20 108 -20 384 0 227 -3 313 -12 322 -18 18
-72 14 -100 -8z"/>
<path d="M3985 2570 c-3 -5 -1 -10 4 -10 6 0 11 5 11 10 0 6 -2 10 -4 10 -3 0
-8 -4 -11 -10z"/>
<path d="M8460 1626 c0 -2 7 -9 15 -16 12 -10 15 -10 15 4 0 9 -7 16 -15 16
-8 0 -15 -2 -15 -4z"/>
</g>
</svg>
